<?xml version="1.0" standalone="no"?>
<!DOCTYPE svg PUBLIC "-//W3C//DTD SVG 20010904//EN"
    "http://www.w3.org/TR/2001/REC-SVG-20010904/DTD/svg10.dtd">
<svg version="1.0" xmlns="http://www.w3.org/2000/svg"
     width="23.000000pt" height="23.000000pt" viewBox="0 0 512.000000 512.000000"
     preserveAspectRatio="xMidYMid meet">

    <g transform="translate(0.000000,512.000000) scale(0.100000,-0.100000)"
       fill="#605f6d" stroke="none">
        <path d="M1632 4833 c-18 -9 -43 -30 -55 -47 -21 -29 -22 -43 -25 -227 l-3
-197 -81 -12 c-452 -66 -727 -331 -803 -774 -22 -131 -20 -160 14 -198 l29
-33 1852 0 1852 0 29 33 c34 38 36 67 14 198 -76 443 -351 708 -803 774 l-82
12 0 185 c0 150 -3 191 -16 219 -24 50 -68 77 -133 82 -70 5 -115 -22 -148
-88 -21 -41 -23 -58 -23 -217 l0 -173 -689 0 -689 0 -4 183 c-3 162 -5 186
-24 217 -43 74 -134 102 -212 63z"/>
        <path d="M762 2999 c-51 -25 -99 -80 -112 -129 -6 -21 -10 -319 -10 -757 0
-585 3 -744 15 -836 30 -232 109 -416 238 -553 105 -113 216 -181 377 -234
185 -60 200 -61 1340 -57 1007 3 1037 3 1125 24 441 102 682 384 735 858 7 67
10 341 8 831 l-3 730 -28 42 c-15 23 -46 54 -69 69 l-42 28 -1765 3 -1766 2
-43 -21z m1150 -680 c82 -42 130 -144 108 -230 -18 -69 -53 -114 -111 -143
-88 -43 -176 -30 -244 39 -69 68 -82 156 -39 244 54 108 175 146 286 90z m748
1 c157 -80 143 -315 -22 -384 -134 -57 -287 48 -288 197 -1 162 164 261 310
187z m750 -3 c121 -62 145 -233 46 -332 -69 -69 -157 -83 -245 -39 -117 59
-153 209 -75 312 68 88 171 111 274 59z m-1501 -743 c131 -66 157 -229 51
-334 -105 -106 -268 -80 -334 51 -43 88 -30 176 39 244 68 69 156 83 244 39z
m717 11 c114 -34 176 -169 129 -283 -71 -168 -319 -168 -390 0 -46 112 14 248
126 283 58 18 76 18 135 0z m742 3 c85 -21 152 -113 152 -210 0 -51 -46 -135
-89 -163 -96 -62 -193 -54 -271 25 -79 78 -87 175 -24 272 23 36 62 63 114 79
37 11 66 10 118 -3z"/>
    </g>
</svg>
