<?xml version="1.0" standalone="no"?>
<!DOCTYPE svg PUBLIC "-//W3C//DTD SVG 20010904//EN"
 "http://www.w3.org/TR/2001/REC-SVG-20010904/DTD/svg10.dtd">
<svg version="1.0" xmlns="http://www.w3.org/2000/svg"
 width="23.000000pt" height="23.000000pt" viewBox="0 0 512.000000 512.000000"
 preserveAspectRatio="xMidYMid meet">

<g transform="translate(0.000000,512.000000) scale(0.100000,-0.100000)"
fill="#605f6d" stroke="none">
<path d="M1002 5109 c-195 -25 -356 -189 -382 -390 -13 -100 -13 -4218 0
-4318 27 -206 185 -364 391 -391 103 -13 3059 -13 3130 0 126 23 258 120 313
228 58 115 56 28 56 1855 l0 1677 -557 0 -558 0 -55 26 c-73 34 -116 76 -151
149 l-29 60 0 558 0 557 -1047 -1 c-577 -1 -1077 -5 -1111 -10z m2536 -2119
c96 -59 96 -201 0 -260 -32 -20 -53 -20 -982 -20 l-950 0 -32 22 c-46 31 -64
68 -64 128 0 60 18 95 63 128 l32 22 950 0 c930 0 951 0 983 -20z m0 -600 c96
-59 96 -201 0 -260 -32 -20 -53 -20 -982 -20 l-950 0 -32 22 c-46 31 -64 68
-64 128 0 60 18 95 63 128 l32 22 950 0 c930 0 951 0 983 -20z m0 -600 c96
-59 96 -201 0 -260 -32 -20 -53 -20 -982 -20 l-950 0 -32 22 c-46 31 -64 68
-64 128 0 60 18 95 63 128 l32 22 950 0 c930 0 951 0 983 -20z m-600 -600 c96
-59 96 -201 0 -260 -32 -19 -52 -20 -682 -20 l-650 0 -32 22 c-46 31 -64 68
-64 128 0 60 18 95 63 128 l32 22 650 0 c631 0 651 -1 683 -20z"/>
</g>
</svg>
