<svg width="23" height="23" viewBox="0 0 138 179" fill="#605f6d" xmlns="http://www.w3.org/2000/svg">
    <path fill-rule="evenodd" clip-rule="evenodd"
          d="M93.4512 3.5665C89.0519 -1.15092 81 -0.894551 81 5.55586V5.55586V46.1606C81 53.3403 86.8203 59.1606 94 59.1606H129.585C131.645 59.1606 133.607 58.7455 135.394 57.9944C139.624 56.2162 137.484 50.7839 134.355 47.4282V47.4282L93.4512 3.5665Z"
          fill="#605f6d"/>
    <path fill-rule="evenodd" clip-rule="evenodd"
          d="M72.0888 0C72.1763 0 72.2471 0.0712842 72.2471 0.158829V43.1927C72.2471 55.8953 82.5445 66.1927 95.2471 66.1927H133.37C135.778 66.1927 138 67.9801 138 70.3877V169C138 174.523 133.523 179 128 179H10C4.47715 179 0 174.523 0 169V10C0 4.47716 4.47715 0 10 0H72.0888ZM21 143C21 140.239 23.2386 138 26 138H89C91.7614 138 94 140.239 94 143V155C94 157.761 91.7614 160 89 160H26C23.2386 160 21 157.761 21 155V143ZM26 109C23.2386 109 21 111.239 21 114V126C21 128.761 23.2386 131 26 131H112C114.761 131 117 128.761 117 126V114C117 111.239 114.761 109 112 109H26Z"
          fill="#605f6d"/>
</svg>
